<svg version="1.1" id="Layer_1" xmlns="http://www.w3.org/2000/svg" xmlns:xlink="http://www.w3.org/1999/xlink" x="0px" y="0px"
	 width="100%" viewBox="0 0 256 201" enable-background="new 0 0 256 201" xml:space="preserve">
<path fill="#000000" opacity="1.000000" stroke="none" 
	d="
M217.000000,202.000000 
	C145.099472,202.000000 73.198936,202.000000 1.000000,202.000000 
	C1.000000,168.646362 1.000000,135.291840 1.367935,101.522293 
	C2.468739,102.885414 3.225117,104.654305 3.930005,106.443474 
	C5.934097,111.530319 7.318116,116.968628 10.006381,121.661255 
	C26.656258,150.725235 51.725014,165.838806 85.412361,165.960037 
	C116.233414,166.070969 147.055191,165.995667 177.876617,165.973007 
	C183.664352,165.968750 188.693802,167.788132 192.590591,172.108200 
	C198.034836,178.143829 203.455093,184.209900 208.645844,190.462021 
	C211.672287,194.107315 214.230911,198.141037 217.000000,202.000000 
z"/>
<path fill="#262837" opacity="1.000000" stroke="none" 
	d="
M217.458069,202.000000 
	C214.230911,198.141037 211.672287,194.107315 208.645844,190.462021 
	C203.455093,184.209900 198.034836,178.143829 192.590591,172.108200 
	C188.693802,167.788132 183.664352,165.968750 177.876617,165.973007 
	C147.055191,165.995667 116.233414,166.070969 85.412361,165.960037 
	C51.725014,165.838806 26.656258,150.725235 10.006381,121.661255 
	C7.318116,116.968628 5.934097,111.530319 3.930005,106.443474 
	C3.225117,104.654305 2.468739,102.885414 1.367935,101.053635 
	C1.000000,89.312439 1.000000,77.624878 1.363760,65.413986 
	C3.618031,60.003281 5.308012,55.026829 7.432841,50.243546 
	C18.153534,26.109785 36.603485,10.838532 61.678757,3.200152 
	C62.896267,2.829278 63.897861,1.749609 65.000000,1.000001 
	C107.354225,1.000000 149.708450,1.000000 192.582581,1.364641 
	C193.433716,2.082018 193.705978,2.646317 194.104538,2.757376 
	C226.282074,11.723798 246.913635,32.058578 255.216721,64.620491 
	C255.363113,65.194572 256.386047,65.545143 257.000000,66.000000 
	C257.000000,77.354225 257.000000,88.708458 256.635193,100.582169 
	C255.876328,101.593643 255.265228,102.029037 255.120026,102.585907 
	C251.677536,115.787598 245.825546,127.658211 236.740189,137.998138 
	C232.615372,142.692520 230.673508,148.429184 230.892548,154.998779 
	C231.236008,165.300552 231.000778,175.622238 230.976868,185.935394 
	C230.964050,191.465515 231.857635,197.176895 228.000000,202.000000 
	C224.638718,202.000000 221.277420,202.000000 217.458069,202.000000 
M35.523777,23.983685 
	C12.919780,43.326202 3.234902,67.811691 8.619212,97.065659 
	C15.460132,134.233658 45.975254,158.956955 83.995705,159.193832 
	C114.811943,159.385803 145.630707,159.257339 176.447968,159.152924 
	C185.681137,159.121643 193.281509,162.216934 199.263046,169.377457 
	C205.775360,177.173401 212.518478,184.776581 219.028961,192.574020 
	C220.163712,193.933075 220.645508,195.837326 221.428879,197.489761 
	C222.259430,196.926666 223.089981,196.363571 223.920517,195.800476 
	C224.161240,193.955566 224.599777,192.111801 224.610321,190.265579 
	C224.674957,178.938278 224.962662,167.598648 224.545349,156.286377 
	C224.187225,146.578934 227.164261,138.646851 233.491348,131.225128 
	C245.378387,117.281540 250.925720,100.703819 250.784454,82.432137 
	C250.468399,41.550224 217.553116,7.904230 176.676559,7.204984 
	C145.867661,6.677958 115.043114,7.046607 84.225540,7.053653 
	C66.308456,7.057750 50.216591,12.465552 35.523777,23.983685 
z"/>
<path fill="#000000" opacity="1.000000" stroke="none" 
	d="
M228.468658,202.000000 
	C231.857635,197.176895 230.964050,191.465515 230.976868,185.935394 
	C231.000778,175.622238 231.236008,165.300552 230.892548,154.998779 
	C230.673508,148.429184 232.615372,142.692520 236.740189,137.998138 
	C245.825546,127.658211 251.677536,115.787598 255.120026,102.585907 
	C255.265228,102.029037 255.876328,101.593643 256.635193,101.050827 
	C257.000000,134.552979 257.000000,168.105942 257.000000,202.000000 
	C247.648529,202.000000 238.292923,202.000000 228.468658,202.000000 
z"/>
<path fill="#000000" opacity="1.000000" stroke="none" 
	d="
M257.000000,65.531342 
	C256.386047,65.545143 255.363113,65.194572 255.216721,64.620491 
	C246.913635,32.058578 226.282074,11.723798 194.104538,2.757376 
	C193.705978,2.646317 193.433716,2.082018 193.051239,1.364641 
	C214.260727,1.000000 235.521469,1.000000 257.000000,1.000000 
	C257.000000,22.353735 257.000000,43.708210 257.000000,65.531342 
z"/>
<path fill="#000000" opacity="1.000000" stroke="none" 
	d="
M64.531342,1.000001 
	C63.897861,1.749609 62.896267,2.829278 61.678757,3.200152 
	C36.603485,10.838532 18.153534,26.109785 7.432841,50.243546 
	C5.308012,55.026829 3.618031,60.003281 1.363760,64.945328 
	C1.000000,43.739838 1.000000,22.479677 1.000000,1.000000 
	C22.020386,1.000000 43.041534,1.000000 64.531342,1.000001 
z"/>
<path fill="#FEFEFE" opacity="1.000000" stroke="none" 
	d="
M35.798927,23.758640 
	C50.216591,12.465552 66.308456,7.057750 84.225540,7.053653 
	C115.043114,7.046607 145.867661,6.677958 176.676559,7.204984 
	C217.553116,7.904230 250.468399,41.550224 250.784454,82.432137 
	C250.925720,100.703819 245.378387,117.281540 233.491348,131.225128 
	C227.164261,138.646851 224.187225,146.578934 224.545349,156.286377 
	C224.962662,167.598648 224.674957,178.938278 224.610321,190.265579 
	C224.599777,192.111801 224.161240,193.955566 223.920517,195.800476 
	C223.089981,196.363571 222.259430,196.926666 221.428879,197.489761 
	C220.645508,195.837326 220.163712,193.933075 219.028961,192.574020 
	C212.518478,184.776581 205.775360,177.173401 199.263046,169.377457 
	C193.281509,162.216934 185.681137,159.121643 176.447968,159.152924 
	C145.630707,159.257339 114.811943,159.385803 83.995705,159.193832 
	C45.975254,158.956955 15.460132,134.233658 8.619212,97.065659 
	C3.234902,67.811691 12.919780,43.326202 35.798927,23.758640 
z"/>
</svg>